@startuml

state 1 as " "
state A0 as " "
state A1 as " "
state 2 as " "
state 3 <<choice>>
state 4 as " "
state 6 as " "
state 7 as " "
state 11 as " "
state 9 as ":OPENED_CLIENTS"

[*] --> 1
note on link
    mechanic orders create client
end note

1 --> 2
note on link
    <b>System allows</b>
    * input for client full Name
    * order go to next step
    * cancel
end note

2 --> 1
note on link
    Manager introduces
    * full name
end note

2 --> 11
note on link
 mechanic orders to cancel
end note

2 --> 3
note on link
 mechanic orders go to next step
end note

3 --> 1
note on link
    [empty full name]
end note

3 --> 4

4 --> A0
note on link
    <b>System allows</b>
    * input
    **hours pending for billing
    * order go to next step
    * order go to previous step
    * cancel
end note


A0 --> 4
note on link
    * Mechanic introduces
    ** hours pending for billing
end note

A0 --> 1
note on link
    mechanic orders go to previous step
end note

A0 --> 11
note on link
    mechanic orders to cancel
end note

A0 --> A1
note on link
    mechanic orders go to next step
end note

A1 --> 6
note on link
    <b>System shows</b>
    * All client information to be created
    <b>System allows</b>
    *confirm client creation
    *cancel client creation
    *go to previous step
end note

6 --> 7
note on link
 Mechanic orders confirm client creation
end note

6 --> 4
note on link
    Mechanic orders go to previous step
end note

6 --> 11
note on link
    Mechanic orders to cancel
end note

11 --> 9
note on link
    <b>System shows</b>
    * all clients in system
     <b>System allows</b>
    * order create client
    * order update client
    * order read client
    * order open dashboard
    * order open interventions
    * order open vehicles
    * order open operations
    * order logout
    * order create intervention
end note

7 --> 9
note on link
<b>System shows</b>
* message client is created
* all clients in system
 <b>System allows</b>
* order create client
* order update client
* order read client
* order open dashboard
* order open interventions
* order open vehicles
* order open operations
* order logout
* order create intervention
end note
@enduml
