@startuml
skinparam {
    NoteBackgroundColor #whiteSmoke
}

state OPENED_CLIENTS as ":OPENED_CLIENTS"
state openClients as ":openClients"


[*] --> createClient

state createClient {
state 1 as " "
state A0 as " "
state A1 as " "
state 2 as " "
state 4 as " "
state 6 as " "

[*]  -[#Green]-> 1
note on link
    <b>Mechanic requests to</b>
    * create Client
end note

1 -[#Green]-> 2
note on link
    <b>System requires</b>
    * full Name (mandatory)
    <b>System allows</b>
    * cancel
end note

2 --> [*]
note on link
<b>mechanic requests to
* cancel
end note

2 -[#Green]-> 4
note on link
<b>Mechanic provides</b>
* Full name
end note

4 -[#Green]-> A0
note on link
<b>System requires</b>
* pending billable hours
<b>System allows</b>
* go back
* cancel
end note

A0 --> 1
note on link
<b>Mechanic requests to</b>
* go back
end note


A0 --> [*]
note on link
<b>Mechanic requests to</b>
* cancel
end note

A0 -[#Green]-> A1
note on link
<b>User provides</b>
* pending billable hours
end note

A1 -[#Green]-> 6
note on link
    <b>System shows</b>
    * new Client
    ** Full name
    ** pending billable hours
    <b>System allows</b>
    *confirm creation
    *cancel
    *go back
end note

6 -[#Green]-> [*]
note on link
<b>User requests to</b>
* confirm creation
end note
6 --> 4
note on link
<b>User requests to</b>
* go back
end note

6 --> [*]
note on link
<b>User requests to</b>
* cancel
end note
}

createClient --> openClients

openClients --> OPENED_CLIENTS
note on link
<b>System shows</b>
* all clients in system
<b>System allows</b>
* create client
* update client
* read client
* open dashboard
* open interventions
* open vehicles
* open operations
* logout
* create intervention
end note

@enduml
